<svg width="150" height="138" viewBox="0 0 150 138" fill="none" xmlns="http://www.w3.org/2000/svg">
<g id="ICC-TV_Logo_white" clip-path="url(#clip0_1054_62)">
<path id="Vector" d="M65.5193 60.9687C65.5193 59.9542 65.8949 59.3632 66.2101 59.0461C66.5704 58.6835 67.0052 58.5211 67.2765 58.5211L84.5384 58.5211C84.9223 58.5203 85.2978 58.6336 85.6171 58.8465C85.9364 59.0594 86.1851 59.3624 86.3316 59.7168L91.7637 72.8848L96.8462 59.7074C96.9935 59.3551 97.2422 59.0543 97.5607 58.8432C97.8791 58.632 98.2532 58.5199 98.6355 58.5211H100.309C100.939 58.5211 101.432 58.7385 101.695 59.1331C101.979 59.5574 101.988 60.1714 101.719 60.8177C101.719 60.8177 94.3798 78.4271 94.3022 78.6151C94.2246 78.8032 93.6408 79.7403 91.5908 79.7403C89.5195 79.7403 88.9609 78.8313 88.8721 78.6177C88.7833 78.4041 82.555 63.4163 82.555 63.4163H77.4093V78.0751C77.4093 78.2436 77.3076 78.6606 76.9224 79.0333C76.444 79.4959 75.6825 79.7403 74.7198 79.7403C72.5966 79.7403 72.0302 78.6936 72.0302 78.0751V63.4163H67.2765C66.5701 63.4163 65.5193 62.7645 65.5193 60.9687ZM25.2955 41.9034V42.3056H25.4328C25.5891 42.3056 25.7216 42.2486 25.7216 42.1022C25.7216 41.9981 25.6458 41.8941 25.4328 41.8941C25.3869 41.8939 25.341 41.897 25.2955 41.9034ZM149.947 68.9777C149.947 107.073 119.023 137.955 80.8772 137.955C42.731 137.955 11.8074 107.073 11.8074 68.9777C11.8007 61.822 12.9097 54.7089 15.0946 47.894H14.2227C6.36773 47.894 0 41.5347 0 33.6902C0 25.8457 6.36773 19.4865 14.2227 19.4865H32.7669C45.2043 7.42616 62.1721 0 80.8772 0C119.023 0 149.947 30.8824 149.947 68.9777ZM45.4935 43.4122C47.1674 43.4011 48.829 43.1241 50.4158 42.5916L50.622 39.4183C49.5792 39.8559 48.0096 40.1844 46.8874 40.1844C43.1649 40.1844 41.9314 37.9413 42.7135 33.9202C43.4103 30.3364 45.6128 27.7378 49.0616 27.7378C50.2878 27.736 51.5072 27.9204 52.6779 28.2847L53.6886 25.0567C52.548 24.7286 51.1843 24.5645 49.8705 24.5645C43.6844 24.5645 39.8206 28.6674 38.6824 34.5218C37.7887 39.1174 39.0336 43.4122 45.4935 43.4122ZM68.7307 25.0567C67.5903 24.7286 66.2263 24.5645 64.9125 24.5645C58.7264 24.5645 54.8632 28.6674 53.7247 34.5218C52.8307 39.1174 54.0759 43.4122 60.5352 43.4122C62.2093 43.4012 63.8709 43.1242 65.4578 42.5916L65.6643 39.4183C64.6212 39.8559 63.0519 40.1844 61.9294 40.1844C58.2073 40.1844 56.9735 37.9413 57.7555 33.9202C58.4526 30.3364 60.6552 27.7378 64.1036 27.7378C65.3298 27.736 66.549 27.9204 67.7196 28.2847L68.7307 25.0567ZM66.117 47.894H60.4675V95.9535C60.461 97.0031 60.7354 98.0354 61.2625 98.9435C61.7897 99.8516 62.5503 100.602 63.4656 101.118C64.374 101.647 65.4074 101.922 66.4586 101.917C67.5097 101.911 68.5402 101.625 69.443 101.087L116.111 73.7417C117.007 73.2165 117.75 72.4666 118.267 71.5661C118.783 70.6657 119.055 69.646 119.055 68.6084C119.055 67.5707 118.783 66.5511 118.267 65.6507C117.75 64.7502 117.007 64.0002 116.111 63.4751L78.1648 41.2407C76.8856 43.2782 75.1088 44.9577 73.0015 46.1215C70.8941 47.2852 68.5251 47.8952 66.117 47.894ZM30.4508 43.1658H34.0089L37.6001 24.7013H34.0416L30.4508 43.1658ZM11.0502 36.4997C11.4852 33.561 12.4349 30.7218 13.8558 28.1121C15.0947 25.8652 17.3622 23.7029 17.7482 23.388C18.0645 23.1298 18.122 22.8025 18.0883 22.6623C18.0179 22.3682 17.2703 22.0351 16.0067 22.0351C9.97904 22.0351 4.88844 26.6457 4.88844 32.7069C4.88844 34.5221 5.1765 35.8927 5.83944 37.2826C5.934 37.4759 6.08345 37.5612 6.22555 37.5612C6.31965 37.5623 6.41073 37.5281 6.48076 37.4653C6.55079 37.4025 6.59465 37.3158 6.60367 37.2222C6.75885 34.4166 7.69169 31.0124 8.64335 29.3155C9.14034 28.4864 9.64736 27.6523 10.2426 27.6523C10.4209 27.6523 10.8844 27.7863 10.8844 28.1646C10.8844 28.5501 10.4717 29.1342 10.043 30.056C9.09218 32.2036 8.69882 34.1113 8.41856 35.4944C8.12368 37.1944 8.02412 38.9724 8.16215 40.4505C8.30077 42.7063 9.29237 43.9858 9.84863 43.5618C10.2471 43.2581 9.60567 42.8855 9.79643 42.5002C9.83318 42.4299 9.88841 42.3709 9.95621 42.3296C10.024 42.2882 10.1018 42.2661 10.1812 42.2656C10.2924 42.2685 10.5821 42.3019 10.7093 42.1751C10.8354 42.0493 10.8115 41.7638 10.8016 41.6034C10.6601 39.3375 10.85 37.8671 11.0502 36.4997ZM15.5407 40.3619C15.5879 39.0602 15.7372 37.7642 15.9873 36.4858C17.0664 31.0243 19.8499 27.2758 22.5534 25.35C22.9318 25.0805 22.818 24.6347 22.4807 24.3536C22.0384 23.985 22.3555 23.4723 22.6623 23.3565C22.8998 23.2668 23.2047 23.2223 23.2988 23.1434C23.3311 23.1103 23.3563 23.0708 23.3725 23.0275C23.3888 22.9841 23.3958 22.9379 23.3931 22.8917C23.3931 22.6763 23.2455 22.458 22.5852 22.458C22.0887 22.458 21.4485 22.6693 21.2316 22.7746C16.3149 25.161 12.5343 33.3893 12.5343 40.7829C12.5343 42.4808 12.6592 44.1724 13.2967 45.1941C13.5802 45.6485 13.9431 45.9555 14.2711 45.6633C14.3236 45.6165 14.5178 45.4176 14.2627 45.0102C14.0746 44.7099 14.1343 44.3102 14.285 44.128C14.6911 43.637 15.0234 44.0141 15.4329 43.6571C15.6199 43.494 15.7364 43.2294 15.6825 42.764C15.6276 42.2897 15.5004 41.4191 15.5407 40.3619ZM18.4659 45.083C18.534 45.1388 18.6151 45.1764 18.7017 45.1925C18.7884 45.2085 18.8776 45.2025 18.9613 45.1748C19.2372 45.0822 19.2671 44.7452 19.1472 44.5746C19.0243 44.4141 18.942 44.2262 18.9075 44.027C18.8586 43.7478 18.9247 43.2742 19.3759 43.1287C20.0738 42.9014 20.7426 42.5931 21.3687 42.2103C24.1549 40.517 26.3326 37.34 26.5806 33.5995C26.7014 31.3014 26.2514 29.2533 25.2085 27.6227C25.0861 27.4313 25.1061 26.9802 25.4828 26.7504C25.5933 26.6852 25.7157 26.6428 25.8429 26.6258C26.0624 26.5927 26.414 26.5494 26.414 26.1064C26.414 25.576 25.3629 25.5947 24.7663 25.8882C19.7102 28.3752 17.2804 36.3655 17.2903 40.4691C17.294 42.0031 17.3206 44.1951 18.4659 45.083ZM25.499 41.2791H25.4944C25.2164 41.2797 24.95 41.3905 24.7537 41.5872C24.5575 41.7838 24.4474 42.0502 24.4477 42.3279C24.448 42.6055 24.5587 42.8716 24.7553 43.0679C24.952 43.2641 25.2187 43.3743 25.4967 43.3743C25.7747 43.3743 26.0413 43.2641 26.238 43.0679C26.4347 42.8716 26.5453 42.6055 26.5457 42.3279C26.546 42.0502 26.4359 41.7838 26.2396 41.5872C26.0434 41.3905 25.777 41.2797 25.499 41.2791ZM143.378 68.9777C143.378 34.5055 115.395 6.56024 80.8772 6.56024C66.5415 6.56024 53.3335 11.3807 42.7886 19.4865H66.117C73.972 19.4865 80.3398 25.8457 80.3398 33.6902C80.3398 34.0908 80.3223 34.4873 80.2897 34.8795L119.435 57.8169C123.31 60.0876 125.624 64.122 125.624 68.6085C125.624 73.0954 123.31 77.1295 119.435 79.3999L72.7676 106.745C70.8686 107.873 68.7026 108.473 66.4934 108.485C64.2842 108.497 62.1119 107.919 60.2013 106.811C56.2547 104.554 53.8985 100.495 53.8985 95.9535V47.894H22.0331C19.6059 54.6587 18.3687 61.7918 18.3764 68.9777C18.3764 103.45 46.359 131.395 80.8772 131.395C115.395 131.395 143.378 103.45 143.378 68.9777ZM25.499 41.4445C25.9726 41.4445 26.3514 41.8468 26.3514 42.348C26.3514 42.8493 25.9726 43.2512 25.499 43.2465C25.0254 43.2465 24.6419 42.8493 24.6419 42.3434C24.6419 41.8468 25.0254 41.4445 25.4944 41.4445H25.499ZM25.8117 41.8375C25.7405 41.7855 25.6221 41.7474 25.4421 41.7474C25.3295 41.7479 25.2171 41.7574 25.106 41.7758V42.9629H25.2955V42.452H25.428C25.5796 42.452 25.6553 42.5087 25.6838 42.6601C25.6923 42.765 25.7195 42.8676 25.7643 42.9629H25.9631C25.9229 42.8697 25.8973 42.7708 25.8873 42.6697C25.8638 42.4945 25.7926 42.4 25.6884 42.3811V42.3715C25.7542 42.3571 25.8131 42.3207 25.8553 42.2682C25.8975 42.2158 25.9205 42.1505 25.9205 42.0833C25.9241 42.0365 25.916 41.9896 25.897 41.9467C25.8781 41.9038 25.8487 41.8663 25.8117 41.8375Z" fill="white"/>
</g>
<defs>
<clipPath id="clip0_1054_62">
<rect width="150" height="138" fill="white"/>
</clipPath>
</defs>
</svg>
