<svg width="71" height="58" viewBox="0 0 71 58" fill="none" xmlns="http://www.w3.org/2000/svg">
<mask id="mask0_16364_133527" style="mask-type:alpha" maskUnits="userSpaceOnUse" x="0" y="0" width="71" height="58">
<rect width="71" height="58" fill="#D9D9D9"/>
</mask>
<g mask="url(#mask0_16364_133527)">
<path d="M6.96756 74.4244L9.54149 21.2828L21.3998 58.8381L36.1954 42.8596L39.0519 19.2832L43.8658 34.5758L70.217 6.11778L46.2271 19.1844L37.8113 1.11923L26.1652 38.4015L9.04071 7.4844L-6.72443 65.192C-6.72443 65.192 -9.67676 32.8893 -9.68831 31.3805C-23.7052 43.9542 -33.983 63.2835 -35.3498 85.9922L-19.0595 60.3259L-32.1536 116.679L6.96756 74.4244Z" fill="#3C2CFB"/>
<path d="M6.96756 83.6109L9.54149 30.4694L21.3998 68.0247L36.1954 52.0461L39.0519 28.4697L43.8658 43.7624L70.217 15.3043L46.2271 28.3709L37.8113 10.3058L26.1652 47.5881L9.04071 16.6709L-6.72443 74.3785C-6.72443 74.3785 -9.67676 42.0758 -9.68831 40.5671C-23.7052 53.1408 -33.983 72.47 -35.3498 95.1787L-19.0595 69.5124L-32.1536 125.866L6.96756 83.6109Z" fill="#FF0088"/>
</g>
</svg>
