<svg
    xmlns="http://www.w3.org/2000/svg"
    view-box="0 0 862 925"
    fill="none"
    width="862"
    height="925"
    class="icc-logo-background"
  >
    <g opacity="0.1">
      <path
        d="M355.991 236.75C405.162 149.229 495.226 64.9034 510.529 52.6111C523.073 42.5314 525.331 29.7474 524.076 24.3388C521.317 13.0299 491.714 0 441.539 0C202.205 0 0 179.714 0 415.726C0 486.53 11.5402 539.878 37.882 593.965C41.6451 601.586 47.6661 604.782 53.1853 604.782C60.9624 604.782 67.7361 598.882 68.2378 591.506C74.5097 482.105 111.388 349.593 149.27 283.461C168.838 251.255 188.908 218.803 212.49 218.803C219.515 218.803 238.08 223.966 238.08 238.717C238.08 253.713 221.773 276.577 204.713 312.471C167.082 396.058 151.277 470.55 140.239 524.39C128.448 590.523 124.685 659.851 129.953 717.379C135.472 805.392 174.859 855.053 196.936 838.582C212.741 826.781 187.403 812.276 194.929 797.279C196.936 793.346 202.706 787.937 210.233 788.183C214.748 788.183 226.038 789.658 231.306 784.741C236.324 779.824 235.32 768.761 235.069 762.369C229.55 674.11 237.076 616.828 244.853 563.48C263.418 438.098 306.819 324.271 355.991 236.75ZM440.786 562.988C483.686 350.085 594.07 204.052 701.445 129.069C716.497 118.498 711.981 101.289 698.434 90.2256C680.873 75.9665 693.416 55.8071 705.709 51.3819C715.243 47.94 727.284 46.2191 731.048 43.0231C733.556 40.8105 734.811 37.1228 734.811 33.1892C734.811 24.8305 729.041 16.2259 702.699 16.2259C682.88 16.2259 657.541 24.3388 649.012 28.5182C453.581 121.694 303.558 442.277 303.558 730.409C303.558 796.542 308.575 862.429 333.914 902.256C345.203 919.957 359.503 932.003 372.548 920.448C374.555 918.727 382.332 910.86 372.297 894.88C364.771 883.08 367.28 867.591 373.301 860.462C389.357 841.286 402.653 856.037 418.96 842.023C426.486 835.631 431.002 825.306 428.995 807.113C426.737 788.675 421.72 754.748 423.476 713.446C424.981 660.343 431.253 610.19 440.786 562.988ZM817.599 183.647C821.362 181.435 826.129 179.714 831.899 178.73C840.68 177.501 854.478 175.78 854.478 158.571C854.478 137.92 812.833 138.657 789 149.966C588.3 246.83 491.714 558.071 492.215 718.117C492.466 777.858 493.47 863.166 538.878 897.831C545.401 902.747 552.676 903.239 558.446 901.518C569.485 897.831 570.488 884.801 565.721 878.163C562.711 873.983 558.195 867.591 556.188 856.774C554.181 845.957 556.941 827.518 574.753 821.864C602.098 813.259 628.44 801.213 653.778 785.971C764.414 720.084 850.966 596.177 860.75 450.39C865.516 360.902 847.704 281.002 806.31 217.574C802.045 210.199 802.798 192.743 817.599 183.647Z"
        fill="white"
      />
    </g>
</svg>