<svg width="129" height="110" viewBox="0 0 129 110" fill="none" xmlns="http://www.w3.org/2000/svg">
<g clip-path="url(#clip0_16348_42378)">
<path d="M109.201 -2.63849L101.58 51.8668L92.8755 12.0686L76.1388 27.1458L70.9911 51.1668L67.4621 34.9623L37.6537 61.815L63.59 50.5976L70.5704 69.9952L86.0549 32.6765L100.805 66.1287L122.443 8.1532C122.443 8.1532 122.463 41.7073 122.334 43.2627C137.95 31.6203 150.346 12.6686 153.878 -10.5979L134.696 14.3198L153.455 -42.5105L109.201 -2.63849Z" fill="#3C2CFB"/>
<path d="M115.242 -1.01984L107.62 53.4854L98.9161 13.6872L82.1793 28.7644L77.0316 52.7855L73.5026 36.5809L43.6943 63.4337L69.6305 52.2162L76.6109 71.6139L92.0955 34.2952L106.845 67.7473L128.484 9.77186C128.484 9.77186 128.504 43.326 128.375 44.8813C143.991 33.2389 156.387 14.2873 159.919 -8.97921L140.736 15.9385L159.496 -40.8918L115.242 -1.01984Z" fill="#FF0088"/>
<path d="M115.242 -1.01984L107.62 53.4854L98.9161 13.6872L82.1793 28.7644L77.0316 52.7855L73.5026 36.5809L43.6943 63.4337L69.6305 52.2162L76.6109 71.6139L92.0955 34.2952L106.845 67.7473L128.484 9.77186C128.484 9.77186 128.504 43.326 128.375 44.8813C143.991 33.2389 156.387 14.2873 159.919 -8.97921L140.736 15.9385L159.496 -40.8918L115.242 -1.01984Z" fill="#FF0088"/>
<path d="M115.242 -1.01984L107.62 53.4854L98.9161 13.6872L82.1793 28.7644L77.0316 52.7855L73.5026 36.5809L43.6943 63.4337L69.6305 52.2162L76.6109 71.6139L92.0955 34.2952L106.845 67.7473L128.484 9.77186C128.484 9.77186 128.504 43.326 128.375 44.8813C143.991 33.2389 156.387 14.2873 159.919 -8.97921L140.736 15.9385L159.496 -40.8918L115.242 -1.01984Z" fill="#FF0088"/>
</g>
<defs>
<clipPath id="clip0_16348_42378">
<rect width="167.124" height="144.37" fill="white" transform="translate(37.8223 -73.4941) rotate(15)"/>
</clipPath>
</defs>
</svg>
