<svg xmlns:xlink="http://www.w3.org/1999/xlink" xmlns="http://www.w3.org/2000/svg" width="59" height="22" viewBox="0 0 59 22" fill="currentColor" class="block lg:hidden ml-3"><g fill="#FFFFFF"><path d="M18.7873 17.4335C18.2517 17.4335 17.8198 17.8655 17.8198 18.4069C17.8198 18.954 18.2517 19.3802 18.7816 19.3802C19.3172 19.3802 19.7377 18.954 19.7377 18.4069C19.7434 17.8655 19.3172 17.4335 18.7873 17.4335ZM18.7873 19.2305C18.3554 19.2305 18.0041 18.8676 18.0041 18.4069C18.0041 17.9519 18.3554 17.589 18.7816 17.589H18.7873C19.2193 17.589 19.5649 17.9576 19.5649 18.4126C19.5649 18.8676 19.2193 19.2305 18.7873 19.2305ZM18.9601 18.4357V18.4242C19.0753 18.3896 19.1732 18.3032 19.1732 18.1592C19.1732 18.0556 19.1387 17.9807 19.0753 17.9346C19.012 17.8885 18.9025 17.854 18.7413 17.854C18.6146 17.854 18.5282 17.8655 18.436 17.8828V18.9655H18.6088V18.499H18.7297C18.868 18.499 18.9371 18.5509 18.9601 18.6891C18.9832 18.8331 19.0062 18.931 19.035 18.9655H19.2135C19.1963 18.931 19.1732 18.8676 19.1444 18.7006C19.1214 18.5393 19.0523 18.453 18.9601 18.4357ZM18.724 18.3666H18.603V17.998C18.6318 17.9922 18.6722 17.9922 18.7297 17.9922C18.9256 17.9922 18.9947 18.0844 18.9947 18.1823C18.9889 18.3147 18.868 18.3666 18.724 18.3666ZM40.2644 5.07374C41.4105 5.07374 42.5278 5.24652 43.5588 5.57481L44.4803 2.62597C43.4378 2.32648 42.1995 2.17673 41.0016 2.17673C35.3631 2.17673 31.8383 5.92038 30.8016 11.2652C29.9895 15.458 31.1241 19.3802 37.0103 19.3802C38.5826 19.3802 40.1607 19.0807 41.4969 18.6315L41.6869 15.7345C40.7366 16.1319 39.3083 16.4314 38.2831 16.4314C34.8908 16.4314 33.7677 14.3868 34.4761 10.7122C35.1154 7.44663 37.1197 5.07374 40.2644 5.07374ZM53.9776 5.07374C55.1237 5.07374 56.2411 5.24652 57.272 5.57481L58.1935 2.62597C57.1568 2.32648 55.9128 2.17673 54.7148 2.17673C49.0763 2.17673 45.5573 5.92038 44.5148 11.2652C43.7027 15.458 44.8374 19.3802 50.7235 19.3802C52.2959 19.3802 53.8739 19.0807 55.2101 18.6315L55.4002 15.7345C54.4499 16.1319 53.0215 16.4314 51.9964 16.4314C48.604 16.4314 47.4809 14.3868 48.1894 10.7122C48.8229 7.44663 50.833 5.07374 53.9776 5.07374ZM23.3028 19.1556H26.5453L29.8167 2.30344H26.5741L23.3028 19.1556ZM8.17267 5.41354C9.30152 3.36318 11.3692 1.38768 11.7205 1.09971C12.0085 0.863574 12.0603 0.564082 12.0315 0.437374C11.9681 0.172439 11.2885 -0.132812 10.1366 -0.132812C4.64212 -0.132812 0 4.07735 0 9.60643C0 11.2652 0.264935 12.515 0.869678 13.782C0.95607 13.9606 1.0943 14.0355 1.221 14.0355C1.39955 14.0355 1.55505 13.8972 1.56657 13.7244C1.71056 11.1615 2.5572 8.05714 3.42688 6.50784C3.87611 5.75335 4.33687 4.9931 4.87826 4.9931C5.03952 4.9931 5.46572 5.11405 5.46572 5.45962C5.46572 5.81095 5.09136 6.34658 4.69972 7.18746C3.8358 9.14567 3.47295 10.8908 3.21954 12.1521C2.94884 13.7014 2.86245 15.3256 2.9834 16.6733C3.11011 18.7352 4.01434 19.8986 4.52117 19.5127C4.88402 19.2362 4.30231 18.8964 4.4751 18.5451C4.52117 18.453 4.65364 18.3262 4.82642 18.332C4.93009 18.332 5.18927 18.3666 5.31022 18.2514C5.42541 18.1362 5.40237 17.877 5.39661 17.7273C5.2699 15.6596 5.44269 14.3177 5.62123 13.0679C6.04743 10.1305 7.04381 7.46391 8.17267 5.41354ZM10.1194 13.0563C11.1042 8.06865 13.6384 4.64754 16.1034 2.8909C16.449 2.64325 16.3453 2.24008 16.0343 1.98091C15.6312 1.64686 15.9191 1.17458 16.2013 1.07091C16.4202 0.990282 16.6967 0.949965 16.7831 0.875093C16.8406 0.823257 16.8694 0.736866 16.8694 0.644714C16.8694 0.448893 16.737 0.247312 16.1322 0.247312C15.6772 0.247312 15.0955 0.437374 14.8997 0.535285C10.4131 2.71812 6.96894 10.2285 6.96894 16.9785C6.96894 18.5278 7.08413 20.0714 7.66584 21.0044C7.92501 21.4191 8.2533 21.7013 8.55279 21.4306C8.59887 21.3903 8.77741 21.206 8.54703 20.8316C8.37425 20.5552 8.43184 20.1923 8.57007 20.0253C8.93867 19.576 9.24393 19.9216 9.61829 19.5933C9.79107 19.4436 9.89474 19.2017 9.84867 18.7755C9.79683 18.3435 9.68164 17.5487 9.72196 16.5811C9.75652 15.3371 9.9005 14.1622 10.1194 13.0563ZM18.7701 4.1695C18.8565 4.11767 18.9659 4.07735 19.0984 4.05431C19.2999 4.02552 19.6167 3.9852 19.6167 3.58204C19.6167 3.09824 18.6606 3.11552 18.1135 3.38046C13.5059 5.64968 11.2885 12.9412 11.3001 16.6906C11.3058 18.0901 11.3288 20.0886 12.3713 20.9007C12.5211 21.0159 12.6881 21.0274 12.8205 20.9871C13.074 20.9007 13.097 20.5955 12.9876 20.44C12.9185 20.3421 12.8148 20.1923 12.7687 19.9389C12.7226 19.6855 12.786 19.2535 13.1949 19.1211C13.8227 18.9195 14.4274 18.6373 15.0091 18.2802C17.5491 16.7366 19.5361 13.8339 19.7607 10.4185C19.8701 8.32207 19.4612 6.45025 18.5109 4.96431C18.413 4.79152 18.4303 4.3826 18.7701 4.1695Z" fill="#FFFFFF"></path></g></svg>