<svg width="106" height="30" viewBox="0 0 106 30" fill="none" xmlns="http://www.w3.org/2000/svg">
<path d="M2.57227 16.1807L6.74859 8.39037L3.26321 11.275C4.38176 7.63534 7.09289 4.86774 9.82652 3.47805C9.76391 3.718 8.82856 9.08957 8.82856 9.08957L13.8093 0.600098L15.2193 6.23596L18.6701 0.813433L19.2403 4.03887L23.6251 2.9851L18.206 6.38155L18.0917 3.74937L16.6285 7.37018L13.5858 9.27715L13.2995 2.81163L10.6178 11.1374L2.57227 16.1807ZM29.4574 17.2414L23.2913 19.1803L21.4228 26.0979L21.0928 19.5236L15.8882 25.359L16.7333 21.2449L13.0472 22.4055L10.7518 24.9907L10.7619 23.1324L5.2197 24.88L9.31125 24.8821L9.61074 28.004L13.934 23.4526L14.2875 29.3278L19.2614 23.5054L21.1265 29.0305L25.7479 20.4622L25.503 24.9836C27.8169 22.6394 29.0071 20.1701 29.4574 17.2414Z" fill="#FF0088"/>
<path d="M2.57227 16.1807L6.74859 8.39037L3.26321 11.275C4.38176 7.63534 7.09289 4.86774 9.82652 3.47805C9.76391 3.718 8.82856 9.08957 8.82856 9.08957L13.8093 0.600098L15.2193 6.23596L18.6701 0.813433L19.2403 4.03887L23.6251 2.9851L18.206 6.38155L18.0917 3.74937L16.6285 7.37018L13.5858 9.27715L13.2995 2.81163L10.6178 11.1374L2.57227 16.1807ZM29.4574 17.2414L23.2913 19.1803L21.4228 26.0979L21.0928 19.5236L15.8882 25.359L16.7333 21.2449L13.0472 22.4055L10.7518 24.9907L10.7619 23.1324L5.2197 24.88L9.31125 24.8821L9.61074 28.004L13.934 23.4526L14.2875 29.3278L19.2614 23.5054L21.1265 29.0305L25.7479 20.4622L25.503 24.9836C27.8169 22.6394 29.0071 20.1701 29.4574 17.2414Z" fill="#FF0088"/>
<path d="M20.6177 17.7041C20.6649 17.8145 20.6194 17.9346 20.5163 17.972L11.2172 21.3293C11.1484 21.3543 11.0658 21.3 11.0325 21.2083L10.6273 20.0906C10.3072 19.2078 10.4658 18.2471 11.0246 17.7263L15.5587 13.4981C15.2118 13.3939 14.8933 13.4547 14.6268 13.5896L12.3035 14.7648C11.9019 14.9593 11.5963 15.4147 11.6956 15.8318C11.7299 15.964 11.7002 16.0249 11.6292 16.0589L9.64684 17.0105C9.58201 17.0414 9.50395 16.9956 9.47231 16.9082L9.38914 16.6754C8.71929 14.8276 10.2248 13.1291 11.3376 12.4932L13.5059 11.2542C14.845 10.489 17.3025 10.1282 18.2646 12.3771C18.3354 12.5427 18.4802 12.9343 18.4802 12.9343C18.5884 13.2164 18.6528 13.5593 18.3813 13.8151L14.1795 17.4043L19.3009 15.2214C19.3999 15.1792 19.5177 15.2316 19.5635 15.3388L20.6177 17.7041ZM7.76546 14.72C7.73502 14.6349 7.65165 14.5994 7.5795 14.6407L5.82113 15.6455C5.75569 15.6829 5.7254 15.7789 5.75328 15.8601L6.15273 17.0234C6.29616 17.4557 6.23677 17.8839 6.02065 18.0157L0.276545 20.8987C-0.0267067 21.0509 -0.0877738 21.6358 0.129218 22.1973C0.348696 22.7652 0.770655 23.1082 1.09151 22.9722L6.86403 20.5341C7.09406 20.4424 7.39462 20.6896 7.55612 21.1105L7.97405 22.3275C8.00422 22.4154 8.08725 22.4654 8.15974 22.4391L10.1117 21.7309C10.1919 21.7018 10.2304 21.6031 10.1972 21.5107L7.76546 14.72ZM31.3072 7.7213C32.764 10.5241 33.0735 13.4196 31.7567 13.907L23.2176 16.996C22.2595 17.3428 20.6192 15.4753 19.5838 13.07C18.5485 10.6647 18.3746 8.47947 19.2457 7.97857L26.5643 3.80563C27.7426 3.13599 29.8121 4.84461 31.3072 7.7213ZM28.1089 9.13125C27.6421 8.19665 26.9071 7.37896 26.452 7.60553L22.0184 9.84936C21.6392 10.0447 21.8402 11.0018 22.2333 11.8708C22.6264 12.7398 23.231 13.5547 23.633 13.3864L28.3114 11.3924C28.7898 11.185 28.5756 10.0659 28.1089 9.13125ZM37.9836 6.04605H37.0847V9.76149H37.9836V6.04605ZM40.8326 9.80857C41.4634 9.80857 41.968 9.62539 42.2992 9.32713L41.8051 8.61021C41.5316 8.84568 41.2531 8.97128 40.8746 8.97128C40.2017 8.97128 39.8285 8.48983 39.8285 7.90895C39.8285 7.22868 40.2858 6.83097 40.8221 6.83097C41.2373 6.83097 41.558 7.02458 41.7473 7.24961L42.3097 6.585C41.926 6.17164 41.3845 5.99368 40.8483 5.99368C39.5971 5.99368 38.9033 6.81525 38.9033 7.90895C38.9033 9.1178 39.7233 9.80857 40.8326 9.80857ZM44.906 9.80857C45.5368 9.80857 46.0415 9.62539 46.3726 9.32713L45.8785 8.61021C45.605 8.84568 45.3265 8.97128 44.948 8.97128C44.2751 8.97128 43.9019 8.48983 43.9019 7.90895C43.9019 7.22868 44.3593 6.83097 44.8955 6.83097C45.3107 6.83097 45.6314 7.02458 45.8207 7.24961L46.3831 6.585C45.9994 6.17164 45.4579 5.99368 44.9217 5.99368C43.6705 5.99368 42.9767 6.81525 42.9767 7.90895C42.9767 9.1178 43.7967 9.80857 44.906 9.80857ZM49.3471 7.71013H49.3628L50.1198 9.07594H50.6824L51.4394 7.71534H51.4499V9.76149H52.3225V6.04605H51.4341L50.409 8.01889H50.3985L49.3628 6.04605H48.4797V9.76149H49.3471V7.71013ZM56.0594 8.98178H54.2353V8.29101H55.8228V7.53745H54.2353V6.82576H55.9857V6.04605H53.3783V9.76149H56.0594V8.98178ZM57.8724 7.52174H57.8829L59.3969 9.76149H60.2589V6.04605H59.3916V8.33809L59.3811 8.34331L57.8513 6.04605H57.0102V9.76149H57.8724V7.52174ZM62.1823 6.04605H61.3728L61.215 7.45894H61.8249L62.1823 6.04605ZM64.2218 9.03408C63.9379 9.03408 63.5646 8.9137 63.2334 8.66251L62.8549 9.39521C63.2177 9.67776 63.7119 9.80857 64.2165 9.80857C64.984 9.80857 65.6253 9.4998 65.6253 8.67301C65.6253 7.92467 65.0522 7.73628 64.4268 7.5008C63.9799 7.33856 63.838 7.2444 63.838 7.05601C63.838 6.85712 64.0167 6.76296 64.2427 6.76296C64.5266 6.76296 64.8158 6.9042 65.0681 7.10831L65.5412 6.40711C65.1995 6.12977 64.7369 5.9989 64.2322 5.9989C63.4752 5.9989 62.9285 6.37568 62.9285 7.10309C62.9285 7.84622 63.5173 8.09741 64.0745 8.28573C64.5266 8.43754 64.7053 8.51605 64.7053 8.72537C64.7053 8.89805 64.5582 9.03408 64.2218 9.03408ZM68.6629 9.76149H69.5565V6.82576H70.5344V6.04605H67.6904V6.82576H68.6629V9.76149ZM72.5873 8.93858L73.1769 8.34064C73.6564 7.84689 73.7996 7.39708 73.7996 7.03495C73.7996 6.3712 73.3147 5.94326 72.5322 5.94326C71.9811 5.94326 71.5568 6.12978 71.2536 6.34378L71.6724 7.06243C71.8544 6.90882 72.1244 6.76617 72.4109 6.76617C72.7526 6.76617 72.8849 6.96366 72.8904 7.16663C72.9014 7.4574 72.714 7.70424 72.4384 7.99502L71.3087 9.18L71.3197 9.76149H73.8327V8.95503H72.5928L72.5873 8.93858ZM74.4552 7.87431C74.4552 6.71133 75.0063 5.94326 75.9708 5.94326C76.913 5.94326 77.4807 6.66739 77.4807 7.87431C77.4807 9.05381 76.9351 9.81084 75.9708 9.81084C75.0229 9.81084 74.4552 9.08671 74.4552 7.87431ZM75.3811 7.87431C75.3811 8.53264 75.5795 8.97703 75.9708 8.97703C76.3235 8.97703 76.5603 8.62593 76.5603 7.87431C76.5603 7.21598 76.362 6.77714 75.9708 6.77714C75.6126 6.77714 75.3811 7.13372 75.3811 7.87431ZM40.2302 23.428H40.2144L39.6415 21.115H38.7583L38.1695 23.4332H38.1591L37.5335 21.115H36.5819L37.7542 24.8304H38.5376L39.2051 22.3604H39.2157L39.8517 24.8304H40.6297L41.8125 21.115H40.861L40.2302 23.428ZM43.3992 23.36H44.9869V22.6064H43.3992V21.8947H45.1498V21.115H42.5424V24.8304H45.2233V24.0507H43.3992V23.36ZM47.6147 22.5698C47.1678 22.4075 47.0259 22.3134 47.0259 22.125C47.0259 21.9261 47.2046 21.8319 47.4307 21.8319C47.7145 21.8319 48.0036 21.9732 48.256 22.1773L48.7292 21.4761C48.3874 21.1987 47.9248 21.0678 47.4201 21.0678C46.6631 21.0678 46.1164 21.4446 46.1164 22.172C46.1164 22.9152 46.7052 23.1664 47.2625 23.3547C47.7145 23.5065 47.8933 23.585 47.8933 23.7943C47.8933 23.967 47.7461 24.103 47.4096 24.103C47.1257 24.103 46.7526 23.9826 46.4214 23.7315L46.0429 24.4642C46.4056 24.7467 46.8997 24.8775 47.4044 24.8775C48.1719 24.8775 48.8133 24.5688 48.8133 23.742C48.8133 22.9936 48.2403 22.8052 47.6147 22.5698ZM49.3963 21.8947H50.3688V24.8304H51.2624V21.8947H52.2402V21.115H49.3963L49.3963 21.8947ZM54.4578 24.8304H55.3568V21.115H54.4578V24.8304ZM58.7334 23.407L58.7229 23.4123L57.1932 21.115H56.3521V24.8304H57.2142V22.5907H57.2247L58.7386 24.8304H59.6008V21.115H58.7334V23.407ZM63.8262 22.9779C63.8262 24.0717 63.1113 24.8304 61.9022 24.8304H60.5932V21.115H61.8863C63.0692 21.115 63.8262 21.879 63.8262 22.9779ZM62.9062 22.9779C62.9062 22.3552 62.4804 21.8947 61.9074 21.8947H61.45V24.0507H61.8442C62.4857 24.0507 62.9062 23.5797 62.9062 22.9779ZM64.6614 24.8304H65.5604V21.115H64.6614V24.8304ZM67.4125 23.36H69.0001V22.6064H67.4125V21.8947H69.1631V21.115H66.5557V24.8304H69.2366V24.0507H67.4125V23.36ZM71.5229 22.5698C71.076 22.4075 70.9341 22.3134 70.9341 22.125C70.9341 21.9261 71.1128 21.8319 71.3388 21.8319C71.6227 21.8319 71.9119 21.9732 72.1642 22.1773L72.6373 21.4761C72.2956 21.1987 71.833 21.0678 71.3283 21.0678C70.5714 21.0678 70.0246 21.4446 70.0246 22.172C70.0246 22.9152 70.6134 23.1664 71.1706 23.3547C71.6227 23.5065 71.8014 23.585 71.8014 23.7943C71.8014 23.967 71.6543 24.103 71.3179 24.103C71.034 24.103 70.6607 23.9826 70.3295 23.7315L69.951 24.4642C70.3138 24.7467 70.808 24.8775 71.3126 24.8775C72.0801 24.8775 72.7214 24.5688 72.7214 23.742C72.7214 22.9936 72.1483 22.8052 71.5229 22.5698ZM77.4307 24.1187L78.0826 24.8304H77.1522L76.9103 24.5688H76.8999C76.7001 24.7415 76.3268 24.8775 75.9115 24.8775C75.1861 24.8775 74.671 24.4537 74.671 23.7943C74.671 23.3338 74.9338 23.0041 75.2965 22.7948L75.2493 22.7477C75.0599 22.5384 74.9758 22.2924 74.9758 22.0569C74.9758 21.4813 75.4489 21.0626 76.1113 21.0626C76.7369 21.0626 77.1943 21.3871 77.1943 21.9627C77.1943 22.4075 76.884 22.7424 76.3952 22.9623L76.8894 23.5065H76.9103C76.9892 23.3442 77.0208 23.1664 77.0208 23.025L77.7672 23.0198C77.7514 23.36 77.6464 23.8205 77.4307 24.0978V24.1187ZM75.7485 22.0569C75.7485 22.1825 75.8117 22.3238 75.9326 22.4494L75.9904 22.5122C76.2375 22.4023 76.4214 22.261 76.4214 22.0255C76.4214 21.8528 76.2952 21.743 76.0956 21.743C75.8958 21.743 75.7485 21.8633 75.7485 22.0569ZM76.4268 24.035L75.7276 23.2657C75.5594 23.3809 75.4753 23.5379 75.4753 23.6844C75.4753 23.9879 75.7119 24.1501 76.0272 24.1501C76.1691 24.1501 76.3163 24.1187 76.4268 24.0507V24.035ZM82.1348 23.2815C82.1348 23.8205 81.8457 24.0612 81.4619 24.0612C81.0309 24.0612 80.8048 23.7472 80.8048 23.2815V21.115H79.9216V23.3338C79.9216 24.3804 80.5472 24.8775 81.4619 24.8775C82.4502 24.8775 83.0127 24.3229 83.0127 23.3338V21.115H82.1348L82.1348 23.2815ZM85.3725 22.5698C84.9256 22.4075 84.7837 22.3134 84.7837 22.125C84.7837 21.9261 84.9624 21.8319 85.1884 21.8319C85.4723 21.8319 85.7615 21.9732 86.0138 22.1773L86.4869 21.4761C86.1452 21.1987 85.6826 21.0678 85.1779 21.0678C84.421 21.0678 83.8743 21.4446 83.8743 22.172C83.8743 22.9152 84.463 23.1664 85.0202 23.3547C85.4723 23.5065 85.651 23.585 85.651 23.7943C85.651 23.967 85.5039 24.103 85.1675 24.103C84.8836 24.103 84.5103 23.9826 84.1791 23.7315L83.8006 24.4642C84.1634 24.7467 84.6576 24.8775 85.1622 24.8775C85.9297 24.8775 86.571 24.5688 86.571 23.742C86.571 22.9936 85.9979 22.8052 85.3725 22.5698ZM89.3304 21.115L90.6971 24.8304H89.7823L89.5616 24.1606H88.2579L88.0371 24.8304H87.1172L88.4893 21.115H89.3304ZM89.3304 23.428L88.915 22.172H88.9044L88.4945 23.428H89.3304ZM94.0217 24.0075L94.6114 23.4096C95.0908 22.9158 95.2342 22.466 95.2342 22.1039C95.2342 21.4402 94.7491 21.0122 93.9666 21.0122C93.4156 21.0122 92.9911 21.1987 92.6882 21.4127L93.107 22.1314C93.2887 21.9778 93.5588 21.8351 93.8454 21.8351C94.1871 21.8351 94.3193 22.0326 94.3248 22.2356C94.3358 22.5264 94.1485 22.7732 93.8729 23.064L92.7432 24.249L92.7543 24.8304H95.2672V24.024H94.0272L94.0217 24.0075ZM99.0638 22.9433C99.0638 24.1228 98.5183 24.8798 97.5539 24.8798C96.606 24.8798 96.0384 24.1557 96.0384 22.9433C96.0384 21.7803 96.5894 21.0122 97.5539 21.0122C98.4963 21.0122 99.0638 21.7363 99.0638 22.9433ZM98.1436 22.9433C98.1436 22.2849 97.9451 21.8461 97.5539 21.8461C97.1957 21.8461 96.9642 22.2027 96.9642 22.9433C96.9642 23.6016 97.1626 24.046 97.5539 24.046C97.9066 24.046 98.1436 23.6949 98.1436 22.9433ZM100.987 24.0075L101.576 23.4096C102.056 22.9158 102.199 22.466 102.199 22.1039C102.199 21.4402 101.714 21.0122 100.932 21.0122C100.381 21.0122 99.9563 21.1987 99.6533 21.4127L100.072 22.1314C100.254 21.9778 100.524 21.8351 100.811 21.8351C101.152 21.8351 101.284 22.0326 101.29 22.2356C101.301 22.5264 101.114 22.7732 100.838 23.064L99.7084 24.249L99.7194 24.8304H102.232V24.024H100.992L100.987 24.0075ZM105.886 23.426V24.1611H105.395V24.8304H104.525V24.1611H102.921V23.629L104.701 21.0616H105.395V23.426H105.886ZM104.651 22.3398L103.874 23.4809H104.651V22.3398ZM40.1778 18.7914L41.3838 14.3298H41.4028L42.5517 18.7914H43.9571L46.0936 12.0801H44.3748L43.2355 16.2581H43.207L42.1719 12.0801H40.5766L39.5131 16.2675H39.4942L38.3642 12.0801H36.6455L38.763 18.7914H40.1778ZM53.7462 15.4357C53.7462 17.487 52.2935 18.8765 50.2804 18.8765C48.2294 18.8765 46.805 17.4586 46.805 15.4357C46.805 13.4129 48.2294 11.9856 50.2804 11.9856C52.2935 11.9856 53.7462 13.3751 53.7462 15.4357ZM52.0846 15.4357C52.0846 14.3203 51.3249 13.4601 50.2804 13.4601C49.2169 13.4601 48.4668 14.3392 48.4668 15.4357C48.4668 16.5322 49.2169 17.4113 50.2804 17.4113C51.3249 17.4113 52.0846 16.5512 52.0846 15.4357ZM59.0822 16.2203C59.8419 17.0238 60.3261 17.9029 60.687 18.7914H58.8923C58.5695 18.0257 58.0852 17.2696 57.43 16.6267H56.8129V18.7914H55.265V12.0801H57.8953C59.6235 12.0801 60.3072 13.0159 60.3072 14.2825C60.3072 15.2089 59.8704 15.88 59.0822 16.2203ZM58.6645 14.3582C58.6645 13.8477 58.3511 13.4696 57.6389 13.4696H56.8129V15.2467H57.6104C58.2942 15.2467 58.6645 14.9158 58.6645 14.3582ZM62.0158 12.0801V18.7914H66.7066V17.383H63.6396V12.0801L62.0158 12.0801ZM73.8088 15.4452C73.8088 17.4208 72.5174 18.7914 70.3334 18.7914H67.9691V12.0801H70.3049C72.4414 12.0801 73.8088 13.4601 73.8088 15.4452ZM72.147 15.4452C72.147 14.3203 71.3779 13.4885 70.3429 13.4885H69.5168V17.383H70.229C71.3875 17.383 72.147 16.5322 72.147 15.4452ZM83.8162 18.0068L82.9237 16.7118C82.4299 17.1372 81.9267 17.364 81.2429 17.364C80.0275 17.364 79.3534 16.4944 79.3534 15.4452C79.3534 14.2164 80.1795 13.4979 81.1481 13.4979C81.8982 13.4979 82.4774 13.8477 82.8193 14.2542L83.8353 13.0537C83.1421 12.3069 82.164 11.9856 81.1955 11.9856C78.9356 11.9856 77.6821 13.4696 77.6821 15.4452C77.6821 17.6287 79.1634 18.8765 81.167 18.8765C82.3064 18.8765 83.218 18.5456 83.8162 18.0068ZM89.2567 15.9934C89.2567 16.9671 88.7345 17.4018 88.0413 17.4018C87.2627 17.4018 86.8544 16.8347 86.8544 15.9934V12.0801H85.2591V16.088C85.2591 17.9784 86.3891 18.8765 88.0413 18.8765C89.8264 18.8765 90.8425 17.8745 90.8425 16.088V12.0801H89.2567V15.9934ZM93.9755 18.7914H92.4278V12.0801H94.9915C96.6533 12.0801 97.3939 13.0537 97.3939 14.3959C97.3939 15.8894 96.3969 16.6267 94.868 16.6267H93.9755V18.7914ZM93.9755 15.2467H94.6877C95.3903 15.2467 95.7512 14.9158 95.7512 14.3582C95.7512 13.8477 95.4283 13.4696 94.7162 13.4696H93.9755V15.2467Z" fill="white"/>
</svg>
